<svg xmlns="http://www.w3.org/2000/svg" version="1.0" width="1024.000000pt" height="1024.000000pt" viewBox="0 0 1024.000000 1024.000000" preserveAspectRatio="xMidYMid meet">

<g transform="translate(0.000000,1024.000000) scale(0.100000,-0.100000)" fill="#7940da" stroke="none">
<path d="M5024 9006 c-28 -13 -63 -39 -77 -57 -14 -19 -90 -176 -170 -349 -79 -173 -222 -481 -317 -685 -95 -203 -191 -411 -214 -460 -47 -101 -85 -140 -143 -149 -31 -5 -522 -60 -943 -105 -367 -40 -817 -92 -839 -98 -119 -28 -203 -144 -188 -258 15 -104 42 -132 687 -701 63 -56 201 -178 305 -270 105 -93 232 -205 283 -248 95 -81 122 -116 122 -159 0 -29 -23 -140 -129 -632 -44 -203 -96 -446 -115 -540 -19 -93 -56 -267 -81 -385 -50 -232 -52 -278 -15 -350 42 -83 120 -123 230 -118 74 3 79 5 225 87 83 46 263 147 400 224 138 77 286 160 330 184 271 152 387 215 391 211 2 -3 -3 -130 -11 -284 -22 -400 -81 -1531 -101 -1921 -19 -362 -17 -388 31 -492 91 -195 378 -303 597 -225 133 48 226 126 274 230 49 104 49 28 -11 1149 -84 1553 -83 1535 -65 1535 7 0 41 -15 74 -34 34 -18 273 -151 532 -294 691 -383 669 -372 755 -372 54 0 83 5 116 22 90 45 142 134 130 223 -3 22 -35 175 -71 340 -36 165 -103 482 -151 705 -47 223 -102 478 -122 568 -31 140 -34 168 -25 200 12 40 -25 6 907 833 398 354 443 396 470 449 59 115 -8 273 -133 314 -41 13 -198 33 -1032 126 -665 75 -806 93 -831 105 -37 20 -51 44 -187 340 -390 847 -581 1256 -603 1286 -11 15 -42 39 -71 53 -69 34 -143 35 -214 2z m373 -1756 c18 -10 38 -29 46 -42 21 -32 654 -1658 846 -2170 70 -186 70 -190 33 -228 l-30 -30 -185 0 c-291 0 -325 19 -392 220 -44 132 -80 180 -147 199 -31 9 -162 11 -463 9 -403 -3 -421 -4 -455 -24 -48 -28 -71 -66 -116 -191 -22 -63 -50 -121 -68 -140 -55 -64 -69 -67 -299 -71 -205 -4 -209 -3 -233 19 -48 45 -110 -133 717 2073 66 175 124 327 130 338 6 10 25 28 42 38 29 18 52 20 287 20 235 0 257 -2 287 -20z" fill="#7940da"/>
<path d="M5083 6578 c-6 -7 -74 -202 -152 -432 -109 -322 -139 -422 -130 -432 9 -11 71 -14 318 -14 168 0 312 4 320 9 11 7 10 19 -6 72 -19 58 -262 750 -278 792 -8 20 -57 23 -72 5z" fill="#7940da"/>
<path d="M7441 8560 c-32 -7 -60 -47 -72 -101 -6 -24 -28 -81 -50 -127 -65 -134 -182 -234 -338 -288 -90 -32 -126 -100 -81 -156 11 -15 54 -39 100 -58 94 -38 204 -112 247 -167 45 -56 90 -147 114 -226 24 -81 55 -117 99 -117 43 0 64 26 90 111 60 201 187 332 392 409 72 27 102 62 94 109 -7 48 -27 63 -129 104 -181 73 -289 192 -347 385 -32 106 -62 136 -119 122z" fill="#7940da"/>
<path d="M2576 3618 c-14 -14 -31 -47 -41 -83 -65 -243 -179 -375 -403 -468 -66 -28 -80 -38 -96 -70 -33 -68 1 -112 122 -157 179 -66 307 -200 368 -388 28 -87 49 -112 95 -112 43 0 67 29 100 125 39 113 105 214 178 271 51 41 151 94 259 140 91 38 97 140 10 174 -18 7 -71 31 -118 53 -163 77 -284 232 -336 430 -26 101 -82 135 -138 85z" fill="#7940da"/>
</g>
</svg>